General
ID                                       : VOLUME_SET_ID
Complete name                            : 300_2007_1080p_BluRay_BD50.iso
Format                                   : Blu-ray Video
Format profile                           : BD-50 Dual Layer
File size                                : 34.1 GiB (36,654,508,331 bytes)
Duration                                 : 1 h 56 min 32 s
Overall bit rate                         : 41.9 Mbps
Release Date (US)                        : 2007-07-31
Studio                                   : Warner Home Video
Rating                                   : R (for graphic battle sequences throughout, some sexuality and nudity)

Video
ID                                       : 1
ID in the original source                : 4113 (0x1011)
Format                                   : VC-1
Format profile                           : Advanced@L3
Codec ID                                 : V_MS/VFW/FOURCC / WVC1
Duration                                 : 1 h 56 min 32 s
Bit rate mode                            : Variable
Bit rate                                 : 16.8 Mbps
Maximum bit rate                         : 24.0 Mbps
Width                                    : 1 920 pixels
Height                                   : 1 080 pixels
Display aspect ratio                     : 16:9
Active Aspect Ratio                      : 2.40:1
Frame rate                               : 23.976 (24000/1001) FPS
Color space                              : YUV
Chroma subsampling                       : 4:2:0
Bit depth                                : 8 bits
Scan type                                : Progressive
Compression mode                         : Lossy
Stream size                              : 13.7 GiB (55%)

Audio #1
ID                                       : 2
ID in the original source                : 4352 (0x1100)
Format                                   : LPCM
Format profile                           : Multichannel
Codec ID                                 : A_LPCM
Duration                                 : 1 h 56 min 32 s
Bit rate mode                            : Constant
Bit rate                                 : 4 608 kbps
Channel(s)                               : 6 channels
Channel layout                           : L R C LFE Ls Rs
Sampling rate                            : 48.0 kHz
Bit depth                                : 16 bits
Stream size                              : 3.75 GiB (15%)
Language                                 : English
Title                                    : Uncompressed LPCM 5.1 Surround

Audio #2
ID                                       : 3
ID in the original source                : 4353 (0x1101)
Format                                   : Dolby TrueHD / AC-3
Format profile                           : TrueHD / Core
Muxing mode                              : Stream extension
Codec ID                                 : A_TRUEHD / A_AC3
Duration                                 : 1 h 56 min 32 s
Bit rate mode                            : Variable / Constant
Bit rate                                 : 1 736 kbps / 640 kbps
Channel(s)                               : 6 channels
Channel layout                           : L R C LFE Ls Rs
Sampling rate                            : 48.0 kHz
Bit depth                                : 16 bits
Compression mode                         : Lossless / Lossy
Stream size                              : 1.41 GiB (6%)
Language                                 : English
Title                                    : Lossless Dolby TrueHD 5.1

Audio #3
ID                                       : 4
ID in the original source                : 4354 (0x1102)
Format                                   : AC-3
Format profile                           : Dolby Digital
Codec ID                                 : A_AC3
Duration                                 : 1 h 56 min 32 s
Bit rate mode                            : Constant
Bit rate                                 : 640 kbps
Channel(s)                               : 6 channels
Channel layout                           : L R C LFE Ls Rs
Sampling rate                            : 48.0 kHz
Bit depth                                : 16 bits
Compression mode                         : Lossy
Stream size                              : 533 MiB (2%)
Language                                 : English
Title                                    : Dolby Digital 5.1 Surround

Audio #4
ID                                       : 5
ID in the original source                : 4355 (0x1103)
Format                                   : AC-3
Format profile                           : Dolby Digital
Codec ID                                 : A_AC3
Duration                                 : 1 h 56 min 32 s
Bit rate mode                            : Constant
Bit rate                                 : 640 kbps
Channel(s)                               : 6 channels
Channel layout                           : L R C LFE Ls Rs
Sampling rate                            : 48.0 kHz
Bit depth                                : 16 bits
Compression mode                         : Lossy
Stream size                              : 533 MiB (2%)
Language                                 : French (Français)
Title                                    : Doublé au Québec Dolby Digital 5.1

Audio #5
ID                                       : 6
ID in the original source                : 4356 (0x1104)
Format                                   : AC-3
Format profile                           : Dolby Digital
Codec ID                                 : A_AC3
Duration                                 : 1 h 56 min 32 s
Bit rate mode                            : Constant
Bit rate                                 : 640 kbps
Channel(s)                               : 6 channels
Channel layout                           : L R C LFE Ls Rs
Sampling rate                            : 48.0 kHz
Bit depth                                : 16 bits
Compression mode                         : Lossy
Stream size                              : 533 MiB (2%)
Language                                 : Spanish (Español)
Title                                    : Doblaje Latino Dolby Digital 5.1

Text #1
ID                                       : 7
ID in the original source                : 4608 (0x1200)
Format                                   : PGS
Codec ID                                 : S_HDMV/PGS
Codec ID/Info                            : Picture-based subtitle format used on BDs
Duration                                 : 1 h 56 min 32 s
Language                                 : English (SDH)

Text #2
ID                                       : 8
ID in the original source                : 4609 (0x1201)
Format                                   : PGS
Codec ID                                 : S_HDMV/PGS
Codec ID/Info                            : Picture-based subtitle format used on BDs
Duration                                 : 1 h 56 min 32 s
Language                                 : French (Français)

Text #3
ID                                       : 9
ID in the original source                : 4610 (0x1202)
Format                                   : PGS
Codec ID                                 : S_HDMV/PGS
Codec ID/Info                            : Picture-based subtitle format used on BDs
Duration                                 : 1 h 56 min 32 s
Language                                 : Spanish (Español)